<?xml version="1.0" encoding="UTF-8"?><svg id="Layer_2" xmlns="http://www.w3.org/2000/svg" xmlns:xlink="http://www.w3.org/1999/xlink" viewBox="0 0 399.40566 66.71911"><defs><style>.cls-1{fill:#1e2128;}.cls-2{fill:url(#linear-gradient-2);}.cls-3{fill:#268bb4;}.cls-4{fill:url(#linear-gradient);}.cls-5{fill:#3e92ba;}</style><linearGradient id="linear-gradient" x1="338.02181" y1="-5.97451" x2="393.64522" y2="67.15476" gradientUnits="userSpaceOnUse"><stop offset="0" stop-color="#3e92ba" stop-opacity="0"/><stop offset=".21573" stop-color="#3e92ba"/><stop offset=".42073" stop-color="#9e3e97"/><stop offset=".77303" stop-color="#f47820" stop-opacity=".9605"/><stop offset=".92581" stop-color="#f47820" stop-opacity="0"/></linearGradient><linearGradient id="linear-gradient-2" x1="328.54004" y1=".09561" x2="363.26938" y2="47.53081" gradientUnits="userSpaceOnUse"><stop offset=".22152" stop-color="#4883c1"/><stop offset=".51564" stop-color="#9e3e97"/><stop offset=".77957" stop-color="#f47820" stop-opacity=".9605"/></linearGradient></defs><g id="Layer_1-2"><path class="cls-4" d="M378.22588,44.24058s-1.83529,18.42349,9.4588,18.42349c7.27057,0,9.74116-5.15293,9.74116-5.15293l-.14118,2.4-4.30587,4.58823-7.83528,1.27059-4.09411-1.7647-3.59999-3.5294-2.75294-5.15293-.77647-4.7294-1.48235-6.28234-.07059-1.7647,5.85881,1.69411Z"/><path class="cls-2" d="M371.94354,33.65237l-3.24705,1.12941-1.69411,3.5294-5.22352-1.69411-3.24705-1.97647-1.83529-6.63528.70588-6.91763,1.55294-.98823v-2.25882l-1.41176-.75294-12.70586-.28235-1.50588,1.41176.5647,1.57788,2.63529.68094v8.51763l-1.69411,4.23529-5.45881,7.95293s2.25882-6.68234-2.44705-11.95292c-2.53617-2.84051-4.04705-5.90166-4.04705-9.78822,0-7.48507,4.79999-13.17644,13.17644-13.17644,6.68234,0,11.20074,4.52145,12.98821,13.4588,2.30085,11.50426,6.08234,7.82351,9.21735,9.29091,2.07158.96964,3.67674,4.63847,3.67674,4.63847Z"/><g id="OWIB83"><path class="cls-1" d="M391.16456,59.6887c.02404.00692-4.15719,1.13547-7.03767-1.57272-1.22325-1.15008-2.08615-2.88817-2.3861-4.54612s-.27144-4.86601-.27144-4.86601c.00127-.72498.17153-3.23983.17153-3.23983,0,0-.06897-.00016-.17187-.00699l-1.47892-.09827c-.42926-.02852-.85317-.12597-1.27772-.18866l-.54584-.0806c-.20664-.03051-.42491-.11272-.64499-.1619-1.10763-.24751-2.16755-.581-3.21917-1.00013-.03275-.01305-.10479-.03003-.13331-.03506-.03645-.00643-.0042.12189.00055.16461l.14648,1.31762.22063,1.8163.1885,1.96126.19543,1.66526c.04778.40711.12284.78303.20588,1.19315.48705,2.4055,1.1681,4.46838,2.47529,6.56207.2789.4467.58031.83317.89767,1.24776.36335.47466.73754.91298,1.17555,1.32186,1.46669,1.36915,3.45525,2.54196,5.43289,2.94216l.62977.12744c1.46494.29645,3.0931.27837,4.54208-.08898,1.09573-.2778,2.26133-.79945,3.17324-1.45113.90777-.64873,3.7493-2.16391,3.71967-7.38384s-4.59508-5.11878-5.2445-4.89508l-.71335.24573c-.14826.05107-.34266.20543-.48958.29512-.53253.32505-.83607.86735-1.06538,1.42583-.09161.22311-.11903.4358-.11945.66734l-.00102.56139c.21976-.04488.20176-.19312.26475-.33073.19301-.42169.76295-.90064,1.23216-.94828,1.13627-.11535,1.67598.1351,2.37755.97321.09362.11184.14328.21297.18237.35887.14282.53303.24499,1.07838.06875,1.59255-.53873,1.57175-2.10882,2.24655-3.65721,1.81797-.43601-.12068-.86235-.31262-1.22118-.61143-.65332-.54405-1.12631-1.25522-1.35427-2.08427-.13906-.50574-.25857-1.23213-.15146-1.73572l.12507-.58799c.19696-.92601.70156-1.72411,1.35972-2.3869.49631-.49981,1.04104-.85034,1.67729-1.1403.64765-.29516,1.76574-.44675,2.48617-.44675,5.09534,0,6.47654,5.34945,6.47654,7.66886,0,4.91708-3.47291,8.00205-4.37535,8.63979s-1.42555.90788-2.20268,1.27805c-1.20103.57209-3.13691,1.05188-4.45983,1.06547-1.36181.01399-1.84328.04197-3.17993-.21689l-.60434-.11704c-.22899-.04435-.46574-.12761-.69731-.1881-1.00052-.26134-1.91187-.64089-2.82754-1.11663-.81697-.42446-1.53031-.92879-2.24371-1.50344-.82597-.66532-1.39919-1.2204-2.05263-2.05672-.2961-.37897-.60558-.73122-.87343-1.13283-.29944-.44897-.57225-.86507-.84177-1.34523-1.00447-1.78953-1.72057-3.70234-2.15385-5.71083l-.16607-.76982c-.05763-.26717-.11016-.55322-.14596-.82465l-.11135-.84425c-.06823-.51727-.14201-1.02907-.17262-1.55095-.03785-.64517-.08537-1.25094-.15657-1.88637l-.14912-1.33084c-.02654-.2369-.06613-.45851-.11827-.68873l-.14887-.65735-.10718-.38494c-.42528-1.52743-1.37412-2.77648-2.71852-3.61303-.50481-.31412-.97337-.62655-1.51623-.88558-1.05332-.5026-2.14724-.86763-3.29493-1.11237-.25103-.05353-.47781-.07204-.69863-.16417l-.07422.03007c-.0139.00563-.00411.07028.00957.09096l.55556.83959,2.49131,3.90996.9396,1.47058,1.80009,2.83533c.51069.80439.86566,1.63947,1.08301,2.57151.05989.2568.13259.54044.15414.80834.05204.64685.05839,1.29143.00048,1.93863-.02452.27407-.09601.559-.15491.82406-.25135,1.13115-.73894,2.13505-1.45672,3.03643-1.63485,2.05303-6.57612,4.22471-9.09778,4.83498l-1.04552.25302-.66769.13111-.74402.14614c-.21074.04139-.44281.04524-.6564.07877-.3845.06037-.73275.09044-1.11875.12733-1.49835.14319-2.97008.15805-4.46577-.00114-.36008-.03833-.6816-.08767-1.04174-.12235l-.63041-.06072-.89247-.18033-.63012-.1161-1.08541-.26102c-2.73911-.6587-6.27579-2.37208-8.55665-4.07369l-1.40979-1.05176c-.23393-.17452-.46159-.36994-.6728-.57441l-1.33518-1.29257c-1.54257-1.49334-2.82835-3.09837-4.00504-4.89212-.32242-.4915-.59853-.96204-.89626-1.46992-1.23259-2.10257-2.38692-4.94531-2.9411-7.31424l-.12075-.51615-.16666-.75853c-.04732-.21535-.07424-.4264-.10594-.64527l-.15916-1.09896c-.07846-.54171-.10217-1.05814-.12703-1.6074l-.0404-.8925c-.02071-.45754-.02504-.89396-.00938-1.35099l.04305-1.25668.03157-.95822c.01676-.50859.11123-1.00102.18826-1.50711l.12891-.84692.13232-.708.09418-.36967c.04711-.18491.06466-.34442.1088-.52688.29322-1.21226.65294-2.37182,1.10004-3.53996.08047-.21025-.09222-.47712-.13741-.6648l-.27056-1.12351c-.07192-.29866-.13579-.60966-.17891-.91652l-.12104-.86135c-.19247-1.36968-.17729-3.07824.00117-4.45049l.12429-.95573c.03821-.29378.11356-.59743.17658-.88892l.11745-.5433c.04613-.21338.10894-.41172.17338-.62816.69035-2.31853,1.79817-4.45229,3.30367-6.35559.36903-.46653.74414-.87586,1.14486-1.30973.403-.43635.85028-.80241,1.28524-1.20618.3197-.29678.6443-.53322.98911-.80105,1.0554-.81979,2.17014-1.47995,3.38922-2.0394,1.25299-.57502,2.52383-1.06328,3.88337-1.31972l.64196-.12109c.28367-.05351.58128-.12025.86683-.14893l1.37772-.13835c.92189-.09258,1.84128-.09518,2.76309.00098l1.33132.13887c.27658.02885.56332.08175.83725.13682l.70569.14186c2.31769.4659,5.15472,1.77651,7.05047,3.22991.22936.17584.43505.34038.68837.48068.13634-.04247.26605-.09216.39407-.1138l.76512-.12938,1.05573-.14283c.28311-.0383.55241-.05799.83006-.11883.51152-.11207.97833-.05359,1.66483-.12415.49704-.05109,1.42496-.08835,1.91444-.05953l1.51387.08914c.50129.02952.97252.03608,1.463.1189l.94282.15921c.882.14894,2.4068.53058,3.24719.85509l.54879.21191c1.09477.42274,2.65292,1.2157,3.57669,1.91371l.71068.537c.43352.32757,1.56579,1.32162,1.89688,1.70726.37368.43524.76122.84381,1.09848,1.29353l.44586.59453c.90368,1.20501,1.79147,2.88419,2.35174,4.27216l.49446,1.22493c.10561.26162.1914.51668.27687.79068l.34849,1.11719c.05932.19015.11038.37258.15925.56099l.10774.41535c.05539.21355.12869.41124.17467.62637.13852.64815.21191.79742.31906,1.42601l.08962.52572c.03843.22543.12268.45977.13736.6858.01161.17874.04665.3092.06935.4763l.10245.75391c.0506.37234.13988.71537.17252,1.09147l.09693,1.1168.07664.38865c.10653.54022.04926,1.06896.08341,1.61889l.0497.80031.04301,1.2053c.03436.96292.04112,1.89681.01006,2.85714l-.05732,1.77248c-.00694.21449-.05061.41541-.05095.62722l-.00197,1.24472-.12039,1.36336-.07714.94664-.03076.4304c1.08041.15138,2.09702.10369,3.16599.03012.3757-.02586.71602-.05599,1.08404-.11797l.88169-.1485c.21511-.03623.42051-.07313.62955-.12528l.54002-.13473.33062-.08324c1.28264-.32292,3.04483-.96913,4.22459-1.56061l1.49378-.74893c.01855-.0093.08044-.01974.07683-.00349-.00365.01645-.01727.08556-.03369.11044l-.72592,1.10048c-.65484.99273-1.41583,1.81749-2.25081,2.65274-.86711.8674-1.77886,1.60069-2.80965,2.26904-.86737.56239-1.71939,1.07426-2.683,1.45449-.39831.15717-.77524.33476-1.18135.46827l-.36465.11988c-.46415.15259-1.42293.42263-2.11861.55183-.22555.04189-.85977.10491-.85977.10491,0,0-.14561,1.64627-.18653,2.324-.08268,1.36942-.64976,6.58785.9547,9.10806,1.81119,2.84494,6.0185,2.98725,6.0185,2.98725ZM382.37954,36.54492l.04832-.93653.06921-1.58452c.01187-.27178.00604-.54156.00848-.81571l.00685-.77083-.01081-.80108-.04175-1.32801c-.01471-.46782-.05587-.91585-.07119-1.38426l-.04658-1.42473-.1039-1.09367c-.02191-.2306-.06-.46738-.09887-.69552-.05904-.34655-.05743-.65888-.07083-1.02079-.00443-.11966-.07527-.3296-.10085-.46448-.0916-.48289-.16614-.93829-.23166-1.41608-.01393-.10159-.03542-.23006-.06108-.33786l-.13536-.56876c-.09991-.4198-.16748-.81571-.26772-1.23608l-.18494-.77561-.12952-.38464c-.09817-.29156-.15653-.57069-.25842-.85963l-.32541-.92281c-.0816-.23139-.15807-.45112-.25598-.67503l-.67127-1.53506c-.27281-.62387-1.23816-2.31166-1.67159-2.86046l-.88351-1.11869c-.19744-.25-.37722-.47094-.61504-.67814l-.69554-.60599c-.53108-.4627-1.08223-.87164-1.68278-1.25043l-.41167-.25965-.48361-.27506-.57654-.29937-.67902-.3155c-.21038-.09775-.42046-.17398-.64048-.24915l-.86425-.29528c-.24555-.0839-.49042-.16296-.7341-.22527l-.64516-.16498c-.41729-.10671-2.07908-.40838-2.45833-.42351l-1.07166-.04276c-.64854-.02588-1.28677-.02946-1.92976.00926-.47432.02856-.94344-.00142-1.4119.0528l-1.52627.17666c.89779,1.13524,1.66508,2.25069,2.25605,3.51744.63977,1.37135,1.1576,2.94144,1.43331,4.42347.04078.21923.06955.4283.12247.64589l.09066.37284-.10551.06869c-.47257-1.19947-1.80152-3.10543-2.62488-4.07477l-.80031-.9422c-.40152-.4727-.8368-.90753-1.30565-1.31536l-1.09962-.95652c-1.28175-1.11495-3.0723-2.42813-4.5469-3.29367-1.19706-.70263-2.48189-1.17524-3.81708-1.53766-.25934-.07039-.49119-.13089-.75086-.1773l-.72785-.13011c-1.14403-.2045-2.82616-.27948-3.98059-.13801l-1.19352.14625c-.23151.02837-.45156.07306-.67703.12566l-.72241.16854c-1.37486.32076-3.0777,1.05222-4.30002,1.78045-.54947.32736-1.36053.89788-1.85055,1.30105-2.70038,2.22176-4.74202,5.47874-5.39436,8.91225l-.14288.75203c-.10303.5423-.12842,1.07053-.15173,1.62728-.02093.49994-.04426.97202-.00581,1.47094.03179.41256.02374.8201.08872,1.22225l.13133.81288.1486.77794c.17207.90082.46772,1.71987.81524,2.56495.38949.94714.87906,1.80241,1.45253,2.64977.54241.80147.9518,1.28816,1.62592,1.98475l1.09331,1.12975,1.17151,1.23675.57336.717c.19693.24627.41693.48034.58029.75291.29635.49445.63029.94697.88121,1.46977.52103,1.08559.79332,2.24922.98046,3.43309.01819.11505.00988.24226.0211.35977.04973.52085-.04867.43716.0485.59924.0085.01417.07874-.03481.09361-.06177l1.37111-2.48553,1.70125-3.06773,1.05255-1.92942c.26077-.47802.57152-1.58195.57319-2.06022l.02633-7.55705c-1.17737-.47192-2.06891-1.52263-2.18987-2.80932-.14724-1.5662.83728-2.99263,2.30775-3.4562l.62451-.14752,12.09787.00124c.20966.00002.40749.09465.59541.10957.30227.024.52988.13575.78313.28856,1.29797.78321,1.81835,2.06112,1.59216,3.54294-.11817.77415-.59054,1.39781-1.14098,1.92443-.26719.25562-.59193.37829-.94125.53654l.00756.45256.01459,5.47203c.00178.66584.01532,1.29618.15168,1.93654.19269.90492.53079,1.72531.9877,2.52001.59019,1.02651,1.38008,1.86313,2.39376,2.47875.75091.42989,1.51287.77026,2.36184.98328.88539.22215,1.75884.39533,2.63093.74111.31174-.93164.77155-1.75056,1.46774-2.38721.63608-.58167,1.3549-1.0092,2.19427-1.18732.65027-.19297,1.28316-.15564,1.93137-.02457.26041.05266.4593.0854.65381.30422.72764.81856,1.47905,1.59473,2.35131,2.27256,1.79275,1.39314,3.85897,2.51708,6.03926,3.13894l.42796.12206c.1216.03468.34137.11033.41179-.01344-.04228-.23549-.04457-.41403-.01879-.64158.03743-.33036.01637-1.06205.04398-1.59721ZM355.95865,59.50571c.30431-.03124.57232-.06227.8501-.1151l.82586-.15708.55772-.1115c.2056-.0411.40096-.09619.60221-.15516l.44398-.13008c.60164-.17627,1.1681-.34559,1.75384-.57983,1.43933-.57561,2.83374-1.18957,4.12978-2.04861.48674-.32262.89837-.6997,1.29146-1.118.5216-.55505.86438-1.20523,1.0386-1.94969.19127-.81729.17621-1.25705.01262-2.07528-.14883-.74439-.60433-1.39517-1.00129-2.0207l-2.29811-3.62142-2.04643-3.2113-1.97851-3.10797-2.50067-3.90984c-.34584-.54073-.68845-1.03323-.98033-1.60446-.40249-.78771-.68887-1.64087-.8109-2.51941-.04-.28801-.13331-.56464-.1334-.86122l-.00299-10.3988c.75041-.02216,1.93461.262,2.29849-.50575.16639-.35107.15851-.7323-.08762-1.01201-.16389-.18625-.41003-.41944-.70125-.41946l-11.30231-.00081c-.58607-.00004-1.03721.273-1.11269.84048-.06877.517.38529,1.08019.88086,1.08228l1.51792.0064-.00381,10.58662c-.00008.22095-.23726,1.26195-.31198,1.52196-.19673.68462-.46523,1.32628-.80688,1.95087l-1.401,2.56124-1.40014,2.52867-1.1265,2.07494-.63961,1.11736-3.82344,6.98871c-.5876,1.07404-.97709,2.09074-.59963,3.30207.12513.40157.2997.79742.58658,1.11984.49207.55303,1.05417.98821,1.64716,1.43345.94828.71201,1.89456,1.35323,2.94666,1.91191,1.5582.82743,3.15688,1.47022,4.85109,1.95181.50528.14363.98546.27801,1.50127.37095l.91895.16558c.27822.05013.53962.09234.82155.12021l1.4252.14086c.94969.09386,1.88769.09134,2.83181-.00559l1.33577-.13714ZM335.19728,47.6327l1.3244-2.44478c.67398-1.24413.92794-2.59581.86719-4.00963-.03205-.74593-.10013-1.42409-.26933-2.15579-.36103-1.56126-1.03163-3.0061-1.99656-4.28944-.27997-.37236-.54894-.71879-.87072-1.05314l-1.77005-1.83924c-.46667-.48492-.90743-.94907-1.32846-1.47577-.46049-.57607-.89082-1.16029-1.30483-1.76627-.01826-.02673-.11713-.07149-.1252-.05084l-.1835.85959c-.53393,2.50111-.62758,4.98424-.42456,7.52496.04882.61095.13449,1.16785.23399,1.77472.4489,2.73802,1.38991,5.35514,2.71543,7.78803.36361.66739.71378,1.27985,1.14406,1.89563.32352.46299.6076.91187.98547,1.39653.33345-.77567.61654-1.44176,1.00268-2.15455ZM390.63718,41.02773c.02517-.01306.05418-.1064.03268-.11748-.01445-.00744-.07537-.04138-.09053-.0366l-.47881.15087-.72257.13568-1.24524.17384c-.30606.04273-.62302.02785-.93576.04664-.96822.05817-2.57223.02992-3.51823-.13185l-.99708-.17051c-.21796-.03727-.3981-.07951-.62754-.13371-3.44297-.8132-6.81691-2.59099-9.33052-5.10578-.28691-.28704-.54168-.57717-.86122-.83279-.18196-.14556-.93027-.00809-1.18885.09451-1.04397.41421-1.93434,1.58309-1.90161,2.7192.49911.53616,1.02865.9569,1.6009,1.40292,2.12382,1.65534,4.5378,2.88125,7.14103,3.57716.38751.10359.738.195,1.12209.25946l.64649.10849,1.10699.15401c.94403.13134,3.01783.10369,3.99372-.05905l1.04974-.17505c1.25523-.20931,2.45431-.63236,3.58601-1.21985l1.61832-.84011Z"/><path class="cls-1" d="M373.66715,23.47267c-.55442.78696-1.03619,1.20661-2.0543,1.13664-1.09633-.07534-2.10785-1.23766-1.80329-2.49.01925-.07915.00916-.23923-.04518-.28616l-.51238-.09036c-.71199-.12556-1.53158-.61608-1.98012-1.31642.71831.13227,1.35462.07297,2.03835-.07388.17303-.03716.34755-.06112.52179-.10949.25939-.07202.53182-.16078.80221-.18182.62325-.0485,1.24761-.09985,1.843.03015,1.15353.25185,2.18255,1.18816,2.60348,2.2519.44137,1.1154.46853,1.54659.52586,2.77919-.60089-.66034-1.20016-1.26383-1.93941-1.64975Z"/><path class="cls-5" d="M345.87812,56.39195c-.24645-.08519-.46937-.16519-.68883-.26442l-.59707-.26996c-1.08146-.48898-2.10912-1.0439-3.07738-1.72472l-.76186-.53569c-.44957-.31611-.85575-.63843-1.28506-.99466-.3829-.31773-.66985-.82339-.57601-1.34546.07754-.43139.31565-.81647.5219-1.18966l.33943-.61414,1.1309-2.0374c.39667-.71463.75743-1.41839,1.16732-2.11988.14071-.24082.26438-.47664.39396-.72455l.2592-.4959c.05664-.10836.11048-.21118.1925-.31785l8.30886.00185c.17395.00004.31524-.0836.31465-.26844l-.00385-1.22191c-.05537-.0761-.21545-.15114-.31424-.15099l-4.07123.00628-3.31657-.00972c-.04895-.15038.10495-.22625.15978-.32861l.26415-.49315.5973-1.09354c.19499.02926.33764-.04467.50509-.04443l7.29277.01045,3.8772-.00529,1.68623-.01903c.1864-.0021.29575.03292.40072.1969l1.7407,2.71926,2.39194,3.73933,1.87338,2.94826c.48809.76814.675.86364.93946,1.77334.1339.4606.0891.91211-.0473,1.35943-.19868.65155-.59418,1.13771-1.15827,1.52124-.78242.53197-1.60258.95356-2.45999,1.37135-.94797.46192-1.86435.81688-2.87169,1.11766l-.33683.10058c-.05896.0176-.13287.00775-.2153-.03137-.16913.20911-.46437.19608-.71159.24952l-.47068.10174c-.20894.04516-.4303.12171-.63598.1422-.28048.02795-.53336.06351-.81014.09429l-.69875.07772c-1.41919.15785-2.80189.12587-4.21245-.02764l-.67369-.07332c-.44461-.04839-.85471-.18599-1.2998-.26545l-.61227-.10931c-.23157-.04134-1.25419-.34139-1.50784-.42907l-.94275-.32586Z"/></g><circle class="cls-5" cx="351.03853" cy="24.72721" r="1.03226"/><circle class="cls-5" cx="352.96228" cy="29.23159" r="1.40762"/><circle class="cls-5" cx="351.08545" cy="34.72132" r="2.06451"/><path class="cls-1" d="M14.41406,23.58637c-5.19336,0-9.43262,2.86182-11.02246,6.4126h-.15918v-5.88232H0v37.625h3.23242v-15.9502h.15918c1.58984,3.5498,5.8291,6.41211,11.02246,6.41211,6.88965,0,13.67285-4.92871,13.67285-14.30859s-6.7832-14.30859-13.67285-14.30859ZM13.99023,49.23579c-5.4043,0-10.86328-3.7627-10.86328-11.34082s5.45898-11.34082,10.86328-11.34082c5.40625,0,10.86426,3.70947,10.86426,11.34082,0,7.63086-5.45801,11.34082-10.86426,11.34082Z"/><path class="cls-1" d="M38.42385,60.7348v-2.86133c1.27246.84766,3.92188,2.01367,7.73828,2.01367,5.51074,0,10.81055-2.4375,10.81055-9.64453v-4.45117h-.21289c-1.58984,3.5498-5.82812,6.41211-11.02148,6.41211-6.7832,0-13.62012-4.92871-13.62012-14.30859s6.83691-14.30859,13.62012-14.30859c5.19336,0,9.43164,2.86182,11.02148,6.4126h.21289v-5.88232h3.23242v26.28516c0,9.32617-7.20703,12.29395-13.67188,12.29395-3.92188,0-6.88965-1.1123-8.10938-1.96094v-.00002ZM46.16212,49.23578c5.4043,0,10.91602-3.7627,10.91602-11.34082s-5.51172-11.34082-10.91602-11.34082c-5.35352,0-10.81055,3.70947-10.81055,11.34082,0,7.63086,5.45703,11.34082,10.81055,11.34082Z"/><path class="cls-3" d="M66.46192,14.04779h20.77344v5.56445h-14.78516v10.43945h12.50684v5.40576h-12.50684v10.65137h15.2627v5.56445h-21.25098V14.04779Z"/><path class="cls-3" d="M113.89454,51.67328v-4.39844h-.15918c-1.00684,2.17285-4.50391,4.92871-9.53906,4.92871-6.51758,0-13.35449-4.82324-13.35449-14.30859,0-9.48584,6.83691-14.30859,13.35449-14.30859,5.03516,0,8.53223,2.75586,9.53906,4.92871h.15918v-14.46729h5.8291v37.62549h-5.8291ZM105.30958,46.90374c4.45117,0,8.74414-3.07324,8.74414-9.00879s-4.29297-9.00879-8.74414-9.00879c-4.39844,0-8.69141,3.07324-8.69141,9.00879s4.29297,9.00879,8.69141,9.00879Z"/><path class="cls-3" d="M130.85645,60.89398v-4.82227c1.27246.84766,3.97461,1.69629,7.04785,1.69629,5.35254,0,9.38086-2.43848,9.38086-7.63184v-2.86133h-.31836c-.9541,2.17285-4.39844,4.92871-9.37988,4.92871-6.46582,0-13.35449-4.82324-13.35449-14.30859,0-9.48584,6.88867-14.30859,13.35449-14.30859,4.98145,0,8.42578,2.75586,9.37988,4.92871h.31836v-4.39844h5.8291v25.70215c0,10.1748-7.89648,12.87695-14.20215,12.87695-3.44531,0-6.57129-.79492-8.05566-1.80175ZM138.69923,46.90374c4.45215,0,8.74414-3.07324,8.74414-9.00879s-4.29199-9.00879-8.74414-9.00879c-4.39844,0-8.69043,3.07324-8.69043,9.00879s4.29199,9.00879,8.69043,9.00879Z"/><path class="cls-3" d="M157.62208,37.89496c0-9.27393,6.83594-14.30859,13.83105-14.30859s14.62695,4.98145,13.30176,16.53418h-21.62109c.90039,4.76953,4.66309,7.20703,9.37988,7.20703,2.9668,0,5.61719-.9541,7.63086-2.86133l2.75586,2.86133c-2.38477,2.96777-6.35938,4.87598-11.02344,4.87598-7.47168,0-14.25488-5.14062-14.25488-14.30859h0ZM179.56153,35.77484c-.31836-4.76904-4.13379-7.20703-8.05469-7.20703-3.86914,0-7.57812,2.33203-8.42676,7.20703h16.48145Z"/><path class="cls-3" d="M196.44157,27.81814c0,2.35742-1.84961,4.20801-4.25781,4.20801-2.38184,0-4.2832-1.85059-4.2832-4.20801,0-2.30566,1.90137-4.15625,4.2832-4.15625,2.4082,0,4.25781,1.85059,4.25781,4.15625ZM188.96501,27.81814c0,1.85059,1.36914,3.32031,3.24414,3.32031,1.8252,0,3.16797-1.46973,3.16797-3.29492,0-1.84961-1.34277-3.34473-3.19336-3.34473-1.84961,0-3.21875,1.49512-3.21875,3.31934ZM191.52458,29.99783h-.96289v-4.15625c.37988-.07617.91211-.12695,1.59668-.12695.78613,0,1.14062.12695,1.44531.30469.22754.17676.40527.50684.40527.91211,0,.45605-.35547.81152-.8623.96289v.05078c.40625.15234.63379.45605.76074,1.01367.12695.63379.20312.8877.30371,1.03906h-1.03906c-.12598-.15137-.20215-.53223-.3291-1.01367-.07617-.45605-.3291-.65918-.86133-.65918h-.45703v1.67285ZM191.54997,27.64138h.45605c.5332,0,.96387-.17773.96387-.6084,0-.37988-.2793-.63379-.8877-.63379-.25293,0-.43066.02539-.53223.05078v1.19141Z"/><path class="cls-1" d="M205.05433,14.49099h6.78467v31.49609h15.2793v5.68164h-22.06396V14.49099Z"/><path class="cls-1" d="M247.08363,51.66873l-.44092-2.97852h-.16553c-1.65479,2.0957-4.46826,3.58496-7.94336,3.58496-5.40576,0-8.43945-3.91602-8.43945-7.99805,0-6.78418,6.0127-10.20508,15.94141-10.14941v-.44141c0-1.76465-.71729-4.68848-5.46094-4.68848-2.64746,0-5.40576.82715-7.22607,1.98535l-1.32373-4.41211c1.98584-1.21387,5.46094-2.37207,9.70801-2.37207,8.60547,0,11.0874,5.46094,11.0874,11.30762v9.70801c0,2.42773.11035,4.79883.38623,6.4541h-6.12305ZM246.2013,38.5408c-4.79883-.11035-9.37744.9375-9.37744,5.01953,0,2.64746,1.70996,3.86133,3.86133,3.86133,2.70264,0,4.68848-1.76562,5.29541-3.69629.16553-.49609.2207-1.04785.2207-1.48926v-3.69531Z"/><path class="cls-1" d="M259.7682,51.66873c.11035-1.82031.2207-4.79883.2207-7.55664V12.50467h6.78467v15.99707h.11035c1.65479-2.59277,4.57812-4.30273,8.60498-4.30273,6.56396,0,11.25293,5.46094,11.19775,13.62402,0,9.65332-6.12305,14.45215-12.19043,14.45215-3.4751,0-6.56445-1.32324-8.49463-4.63281h-.11035l-.33105,4.02637h-5.79199ZM266.77357,40.58182c0,.55078.05518,1.10254.16553,1.59961.71729,2.70215,3.08887,4.74316,6.0127,4.74316,4.24707,0,6.83984-3.41992,6.83984-8.8252,0-4.74414-2.26172-8.60547-6.78467-8.60547-2.7583,0-5.24023,1.98633-6.0127,4.96484-.11035.49609-.2207,1.10352-.2207,1.76465v4.3584Z"/><path class="cls-1" d="M291.92347,45.43533c1.54443.93848,4.46826,1.93066,6.89502,1.93066,2.979,0,4.30273-1.21289,4.30273-2.97852,0-1.82031-1.10352-2.75781-4.41309-3.91602-5.24023-1.82031-7.44678-4.68945-7.3916-7.83301,0-4.74414,3.9165-8.43945,10.1499-8.43945,2.97852,0,5.57129.77246,7.11572,1.59961l-1.32422,4.79883c-1.1582-.66211-3.30957-1.54492-5.68115-1.54492-2.42725,0-3.75098,1.15918-3.75098,2.81348,0,1.70996,1.26855,2.53711,4.68848,3.75098,4.854,1.76562,7.11572,4.24707,7.1709,8.21875,0,4.85449-3.80615,8.38477-10.92188,8.38477-3.25439,0-6.17773-.77246-8.16357-1.87598l1.32373-4.90918Z"/></g></svg>